<svg width="100%" height="100%" viewBox="0 0 310 22" version="1.1" xmlns="http://www.w3.org/2000/svg" xmlns:xlink="http://www.w3.org/1999/xlink" xml:space="preserve" xmlns:serif="http://www.serif.com/" style="fill-rule:evenodd;clip-rule:evenodd;stroke-linejoin:round;stroke-miterlimit:2;">
    <path d="M18.846,10.969C18.846,12.828 18.556,14.45 17.976,15.834C17.397,17.218 16.574,18.365 15.508,19.273C14.442,20.182 13.143,20.864 11.612,21.319C10.08,21.773 8.362,22 6.458,22C5.588,22 4.574,21.964 3.415,21.892C2.353,21.826 1.309,21.694 0.282,21.498C0.118,21.466 0,21.324 0,21.157L0,0.817C0,0.649 0.121,0.505 0.287,0.475C1.317,0.297 2.385,0.175 3.493,0.109C4.704,0.036 5.744,0 6.613,0C8.455,0 10.127,0.207 11.627,0.62C13.128,1.033 14.416,1.684 15.493,2.572C16.569,3.46 17.397,4.596 17.976,5.98C18.556,7.365 18.846,9.027 18.846,10.969ZM166.002,11.015C166.002,12.821 165.732,14.408 165.194,15.778C164.655,17.147 163.918,18.293 162.983,19.216C162.048,20.139 160.935,20.834 159.645,21.3C158.354,21.767 156.967,22 155.483,22C154.04,22 152.678,21.767 151.397,21.3C150.117,20.834 148.999,20.139 148.044,19.216C147.089,18.293 146.336,17.147 145.788,15.778C145.239,14.408 144.964,12.821 144.964,11.015C144.964,9.21 145.249,7.623 145.818,6.253C146.387,4.884 147.155,3.733 148.12,2.8C149.085,1.866 150.203,1.167 151.474,0.7C152.744,0.233 154.081,0 155.483,0C156.926,0 158.288,0.233 159.569,0.7C160.849,1.167 161.967,1.866 162.922,2.8C163.878,3.733 164.63,4.884 165.179,6.253C165.727,7.623 166.002,9.21 166.002,11.015ZM242.526,22C239.092,22 236.474,21.047 234.675,19.14C232.877,17.233 231.978,14.525 231.978,11.015C231.978,9.271 232.25,7.714 232.8,6.345C233.348,4.975 234.101,3.819 235.057,2.876C236.012,1.932 237.15,1.217 238.471,0.731C239.792,0.244 241.225,0 242.768,0C243.664,0 244.477,0.066 245.21,0.198C245.94,0.33 246.581,0.482 247.128,0.654C247.679,0.827 248.137,1.004 248.502,1.187C248.717,1.295 248.9,1.389 249.046,1.469C249.189,1.55 249.255,1.724 249.199,1.88C248.956,2.553 248.326,4.318 248.051,5.084C248.021,5.175 247.951,5.248 247.858,5.285C247.768,5.321 247.669,5.318 247.579,5.275C247.012,5.003 246.368,4.766 245.651,4.564C244.785,4.321 243.807,4.199 242.708,4.199C241.978,4.199 241.262,4.321 240.558,4.564C239.858,4.808 239.238,5.198 238.7,5.736C238.159,6.273 237.728,6.969 237.403,7.82C237.077,8.672 236.915,9.707 236.915,10.924C236.915,11.898 237.021,12.806 237.237,13.648C237.449,14.489 237.794,15.215 238.272,15.823C238.75,16.432 239.374,16.913 240.147,17.268C240.92,17.623 241.856,17.801 242.954,17.801C243.644,17.801 244.265,17.761 244.812,17.679C245.363,17.598 245.851,17.502 246.275,17.39C246.703,17.279 247.078,17.152 247.403,17.01C247.596,16.926 247.775,16.846 247.948,16.769C248.034,16.73 248.133,16.729 248.223,16.767C248.309,16.805 248.379,16.878 248.412,16.969C248.671,17.725 249.275,19.482 249.507,20.152C249.56,20.307 249.497,20.479 249.351,20.56C248.701,20.909 247.841,21.227 246.763,21.513C245.545,21.838 244.132,22 242.526,22ZM42.955,11.015C42.955,12.821 42.685,14.408 42.147,15.778C41.608,17.147 40.871,18.293 39.936,19.216C39.001,20.139 37.888,20.834 36.598,21.3C35.307,21.767 33.92,22 32.436,22C30.993,22 29.631,21.767 28.35,21.3C27.07,20.834 25.952,20.139 24.996,19.216C24.041,18.293 23.289,17.147 22.74,15.778C22.192,14.408 21.917,12.821 21.917,11.015C21.917,9.21 22.202,7.623 22.771,6.253C23.34,4.884 24.107,3.733 25.073,2.8C26.038,1.866 27.156,1.167 28.427,0.7C29.697,0.233 31.033,0 32.436,0C33.879,0 35.241,0.233 36.521,0.7C37.802,1.167 38.92,1.866 39.875,2.8C40.831,3.733 41.583,4.884 42.132,6.253C42.68,7.623 42.955,9.21 42.955,11.015ZM274.463,21.613C274.373,21.613 274.287,21.577 274.224,21.514C274.161,21.451 274.124,21.365 274.124,21.275L274.124,1.047C274.124,0.86 274.277,0.709 274.463,0.709L287.931,0.709C288.117,0.709 288.27,0.86 288.27,1.047L288.27,4.323C288.27,4.509 288.117,4.661 287.931,4.661L279.178,4.661C278.992,4.661 278.839,4.812 278.839,4.998L278.839,8.425C278.839,8.612 278.992,8.763 279.178,8.763L286.873,8.763C287.062,8.763 287.211,8.914 287.211,9.101L287.211,12.286C287.211,12.473 287.062,12.624 286.873,12.624L279.178,12.624C278.992,12.624 278.839,12.775 278.839,12.962L278.839,17.324C278.839,17.51 278.992,17.662 279.178,17.662L288.625,17.662C288.814,17.662 288.966,17.813 288.966,17.999L288.966,21.275C288.966,21.462 288.814,21.613 288.625,21.613L274.463,21.613ZM265.922,21.613C265.806,21.613 265.696,21.553 265.633,21.454C265.232,20.815 264.767,20.129 264.236,19.396C263.662,18.602 263.039,17.807 262.362,17.013C261.688,16.219 260.988,15.454 260.261,14.721C259.724,14.174 259.18,13.674 258.642,13.222C258.539,13.138 258.4,13.121 258.28,13.176C258.161,13.232 258.088,13.351 258.088,13.482C258.085,15.28 258.085,19.975 258.085,21.275C258.085,21.365 258.051,21.451 257.988,21.514C257.922,21.577 257.839,21.613 257.746,21.613L253.711,21.613C253.618,21.613 253.535,21.577 253.469,21.514C253.406,21.451 253.373,21.365 253.373,21.275L253.373,1.047C253.373,0.957 253.406,0.871 253.469,0.808C253.535,0.745 253.618,0.709 253.711,0.709L257.746,0.709C257.839,0.709 257.922,0.745 257.988,0.808C258.051,0.871 258.085,0.957 258.085,1.047L258.085,7.764C258.085,7.903 258.171,8.027 258.3,8.078C258.43,8.13 258.576,8.097 258.672,7.996C259.707,6.898 260.746,5.761 261.788,4.585C262.989,3.231 264.11,1.977 265.149,0.821C265.212,0.75 265.305,0.709 265.401,0.709L270.109,0.709C270.242,0.709 270.362,0.786 270.418,0.905C270.471,1.025 270.451,1.166 270.368,1.266C269.094,2.757 267.817,4.2 266.532,5.596C265.172,7.079 263.742,8.571 262.245,10.071C262.179,10.138 262.143,10.23 262.146,10.324C262.153,10.419 262.196,10.507 262.265,10.568C263.838,11.905 265.361,13.475 266.838,15.278C268.281,17.046 269.668,18.985 271.002,21.096C271.068,21.2 271.072,21.331 271.012,21.439C270.952,21.546 270.839,21.613 270.713,21.613C269.466,21.613 266.672,21.613 265.922,21.613ZM225.348,21.452C225.202,21.452 225.074,21.358 225.031,21.219C224.828,20.569 224.605,19.903 224.362,19.22C224.117,18.531 223.875,17.841 223.638,17.151C223.592,17.017 223.466,16.927 223.324,16.927L215.638,16.927C215.496,16.927 215.37,17.017 215.324,17.151C215.087,17.841 214.845,18.531 214.6,19.22C214.357,19.903 214.134,20.569 213.931,21.219C213.888,21.358 213.76,21.452 213.614,21.452L209.43,21.452C209.323,21.452 209.222,21.4 209.16,21.313C209.097,21.225 209.081,21.113 209.117,21.012C209.846,18.928 210.54,16.993 211.2,15.208C211.905,13.298 212.595,11.498 213.27,9.809C213.945,8.12 214.61,6.516 215.265,4.997C215.892,3.544 216.541,2.124 217.214,0.735C217.27,0.621 217.386,0.548 217.513,0.548L221.598,0.548C221.726,0.548 221.843,0.622 221.898,0.738C222.552,2.126 223.197,3.546 223.834,4.997C224.498,6.516 225.168,8.12 225.843,9.809C226.518,11.498 227.208,13.298 227.914,15.208C228.573,16.993 229.267,18.928 229.997,21.012C230.033,21.113 230.016,21.225 229.953,21.313C229.89,21.4 229.791,21.452 229.685,21.452L225.348,21.452ZM78.066,21.452C77.92,21.452 77.792,21.358 77.749,21.219C77.546,20.569 77.323,19.903 77.08,19.22C76.835,18.531 76.593,17.841 76.356,17.151C76.31,17.017 76.184,16.927 76.042,16.927L68.355,16.927C68.214,16.927 68.088,17.017 68.042,17.151C67.805,17.841 67.563,18.531 67.318,19.22C67.075,19.903 66.852,20.569 66.649,21.219C66.606,21.358 66.478,21.452 66.332,21.452L62.148,21.452C62.04,21.452 61.94,21.4 61.877,21.313C61.815,21.225 61.799,21.113 61.835,21.012C62.564,18.928 63.258,16.993 63.917,15.208C64.623,13.298 65.313,11.498 65.988,9.809C66.663,8.12 67.328,6.516 67.982,4.997C68.609,3.544 69.259,2.124 69.932,0.735C69.987,0.621 70.103,0.548 70.231,0.548L74.316,0.548C74.444,0.548 74.561,0.622 74.616,0.738C75.27,2.126 75.915,3.546 76.551,4.997C77.216,6.516 77.886,8.12 78.561,9.809C79.236,11.498 79.926,13.298 80.632,15.208C81.291,16.993 81.985,18.928 82.714,21.012C82.749,21.113 82.734,21.225 82.671,21.313C82.609,21.4 82.508,21.452 82.401,21.452L78.066,21.452ZM44.228,0.548L61.484,0.548C61.593,0.548 61.694,0.601 61.756,0.689C61.818,0.778 61.833,0.891 61.796,0.993C61.49,1.828 60.841,3.599 60.615,4.216C60.567,4.346 60.442,4.433 60.303,4.433L55.652,4.433C55.564,4.433 55.479,4.468 55.417,4.53C55.355,4.592 55.32,4.677 55.32,4.764L55.32,21.121C55.32,21.209 55.285,21.293 55.223,21.355C55.161,21.417 55.076,21.452 54.988,21.452L50.708,21.452C50.62,21.452 50.535,21.417 50.473,21.355C50.411,21.293 50.376,21.209 50.376,21.121L50.376,4.764C50.376,4.677 50.341,4.592 50.279,4.53C50.217,4.468 50.132,4.433 50.044,4.433L45.409,4.433C45.27,4.433 45.145,4.346 45.098,4.216C44.872,3.599 44.222,1.828 43.916,0.993C43.879,0.891 43.894,0.778 43.956,0.689C44.018,0.601 44.12,0.548 44.228,0.548ZM167.275,0.548L184.659,0.548C184.748,0.548 184.832,0.583 184.894,0.645C184.956,0.707 184.991,0.791 184.991,0.879L184.991,4.102C184.991,4.19 184.956,4.274 184.894,4.336C184.832,4.398 184.748,4.433 184.659,4.433L178.699,4.433C178.611,4.433 178.527,4.468 178.464,4.53C178.402,4.592 178.367,4.677 178.367,4.764L178.367,21.121C178.367,21.209 178.332,21.293 178.27,21.355C178.208,21.417 178.124,21.452 178.035,21.452L173.755,21.452C173.667,21.452 173.582,21.417 173.52,21.355C173.458,21.293 173.423,21.209 173.423,21.121L173.423,4.764C173.423,4.677 173.388,4.592 173.326,4.53C173.264,4.468 173.179,4.433 173.091,4.433L168.457,4.433C168.317,4.433 168.193,4.346 168.145,4.216C167.919,3.599 167.269,1.828 166.963,0.993C166.926,0.891 166.941,0.778 167.003,0.689C167.065,0.601 167.167,0.548 167.275,0.548ZM100.112,5.991C100.112,6.758 99.961,7.494 99.658,8.2C99.354,8.906 98.96,9.587 98.475,10.242C97.99,10.898 97.444,11.528 96.838,12.133C96.232,12.738 95.635,13.313 95.049,13.858C94.746,14.14 94.418,14.458 94.064,14.811C93.711,15.164 93.372,15.522 93.049,15.885C92.725,16.248 92.437,16.586 92.185,16.898C92.116,16.983 92.054,17.064 92,17.141C91.929,17.244 91.921,17.378 91.98,17.489C92.039,17.599 92.154,17.669 92.279,17.669C93.984,17.67 99.049,17.67 100.409,17.67C100.499,17.67 100.586,17.706 100.649,17.769C100.713,17.833 100.749,17.919 100.749,18.009L100.749,21.113C100.749,21.3 100.597,21.452 100.409,21.452L87.04,21.452C86.866,21.452 86.72,21.321 86.702,21.147C86.689,20.988 86.682,20.807 86.682,20.605L86.682,19.879C86.682,18.911 86.839,18.023 87.152,17.216C87.465,16.409 87.875,15.658 88.38,14.962C88.885,14.266 89.456,13.616 90.093,13.011C90.729,12.405 91.361,11.8 91.987,11.195C92.473,10.731 92.927,10.292 93.352,9.879C93.776,9.465 94.15,9.062 94.473,8.669C94.797,8.275 95.049,7.882 95.231,7.489C95.413,7.095 95.504,6.697 95.504,6.294C95.504,5.406 95.251,4.781 94.746,4.418C94.241,4.055 93.614,3.873 92.867,3.873C92.321,3.873 91.811,3.959 91.336,4.13C90.861,4.302 90.426,4.503 90.032,4.735C89.638,4.967 89.299,5.199 89.016,5.431C88.881,5.542 88.762,5.643 88.659,5.733C88.587,5.797 88.491,5.828 88.395,5.817C88.299,5.806 88.212,5.755 88.156,5.677C87.709,5.05 86.714,3.655 86.311,3.089C86.211,2.949 86.233,2.755 86.362,2.64C87.2,1.904 88.16,1.292 89.244,0.802C90.426,0.268 91.694,0 93.049,0C94.281,0 95.342,0.141 96.232,0.424C97.121,0.706 97.854,1.104 98.43,1.619C99.006,2.133 99.43,2.759 99.703,3.495C99.976,4.231 100.112,5.063 100.112,5.991ZM132.076,0C135.265,0 137.708,0.566 139.404,1.699C141.101,2.831 141.949,4.59 141.949,6.977C141.949,8.467 141.607,9.675 140.922,10.604C140.237,11.532 139.251,12.261 137.963,12.792C138.392,13.322 138.842,13.929 139.312,14.613C139.782,15.296 140.248,16.01 140.707,16.755C141.167,17.499 141.612,18.275 142.041,19.081C142.383,19.722 142.706,20.355 143.009,20.977C143.058,21.079 143.052,21.2 142.991,21.297C142.93,21.393 142.824,21.452 142.71,21.452L138.066,21.452C137.945,21.452 137.835,21.387 137.776,21.282C137.419,20.644 137.057,19.997 136.691,19.341C136.292,18.627 135.883,17.933 135.464,17.26C135.045,16.586 134.631,15.949 134.222,15.347C133.847,14.794 133.471,14.289 133.096,13.831C133.033,13.754 132.939,13.71 132.84,13.71L130.966,13.71C130.879,13.71 130.794,13.745 130.732,13.807C130.67,13.869 130.635,13.953 130.635,14.041L130.635,21.121C130.635,21.209 130.6,21.293 130.537,21.355C130.475,21.417 130.391,21.452 130.303,21.452L126.183,21.452C126.095,21.452 126.011,21.417 125.948,21.355C125.886,21.293 125.851,21.209 125.851,21.121L125.851,0.825C125.851,0.666 125.965,0.529 126.122,0.499C127.08,0.323 128.068,0.197 129.086,0.123C130.2,0.041 131.197,0 132.076,0ZM195.061,0C198.25,0 200.693,0.566 202.389,1.699C204.086,2.831 204.934,4.59 204.934,6.977C204.934,8.467 204.592,9.675 203.908,10.604C203.223,11.532 202.236,12.261 200.948,12.792C201.378,13.322 201.827,13.929 202.298,14.613C202.768,15.296 203.233,16.01 203.693,16.755C204.153,17.499 204.597,18.275 205.027,19.081C205.368,19.722 205.691,20.355 205.994,20.977C206.044,21.079 206.037,21.2 205.976,21.297C205.916,21.393 205.809,21.452 205.695,21.452L201.051,21.452C200.931,21.452 200.82,21.387 200.762,21.282C200.404,20.644 200.042,19.997 199.676,19.341C199.277,18.627 198.869,17.933 198.45,17.26C198.03,16.586 197.616,15.949 197.208,15.347C196.832,14.794 196.457,14.289 196.081,13.831C196.018,13.754 195.924,13.71 195.825,13.71L193.952,13.71C193.864,13.71 193.78,13.745 193.717,13.807C193.655,13.869 193.62,13.953 193.62,14.041L193.62,21.121C193.62,21.209 193.585,21.293 193.523,21.355C193.461,21.417 193.376,21.452 193.288,21.452L189.168,21.452C189.08,21.452 188.996,21.417 188.934,21.355C188.872,21.293 188.837,21.209 188.837,21.121L188.837,0.825C188.837,0.666 188.95,0.529 189.107,0.499C190.066,0.323 191.054,0.197 192.071,0.123C193.186,0.041 194.182,0 195.061,0ZM299.034,0C302.222,0 304.668,0.566 306.363,1.699C308.059,2.831 308.908,4.59 308.908,6.977C308.908,8.467 308.566,9.675 307.88,10.604C307.196,11.532 306.211,12.261 304.923,12.792C305.351,13.322 305.799,13.929 306.27,14.613C306.742,15.296 307.206,16.01 307.667,16.755C308.125,17.499 308.57,18.275 309.001,19.081C309.343,19.722 309.665,20.355 309.967,20.977C310.017,21.079 310.01,21.2 309.95,21.297C309.89,21.393 309.781,21.452 309.668,21.452L305.023,21.452C304.903,21.452 304.794,21.387 304.734,21.282C304.376,20.644 304.014,19.997 303.649,19.341C303.251,18.627 302.843,17.933 302.421,17.26C302.003,16.586 301.589,15.949 301.18,15.347C300.805,14.794 300.43,14.289 300.056,13.831C299.992,13.754 299.896,13.71 299.797,13.71L297.925,13.71C297.836,13.71 297.753,13.745 297.69,13.807C297.63,13.869 297.593,13.953 297.593,14.041L297.593,21.121C297.593,21.209 297.557,21.293 297.497,21.355C297.434,21.417 297.351,21.452 297.262,21.452L293.141,21.452C293.054,21.452 292.968,21.417 292.908,21.355C292.845,21.293 292.809,21.209 292.809,21.121L292.809,0.825C292.809,0.666 292.925,0.529 293.081,0.499C294.04,0.323 295.029,0.197 296.044,0.123C297.159,0.041 298.154,0 299.034,0ZM112.088,0C115.257,0 117.689,0.556 119.386,1.668C121.083,2.78 121.931,4.601 121.931,7.13C121.931,9.681 121.072,11.522 119.355,12.654C117.638,13.786 115.185,14.353 111.996,14.353L110.837,14.353C110.746,14.353 110.659,14.389 110.594,14.453C110.53,14.517 110.494,14.604 110.494,14.695L110.494,21.11C110.494,21.2 110.458,21.287 110.393,21.352C110.329,21.416 110.241,21.452 110.151,21.452L106.054,21.452C105.963,21.452 105.875,21.416 105.811,21.352C105.747,21.287 105.711,21.2 105.711,21.11L105.711,0.835C105.711,0.67 105.828,0.528 105.991,0.498C106.951,0.322 107.961,0.197 109.022,0.123C110.187,0.041 111.209,0 112.088,0ZM4.843,17.464C4.843,17.647 4.986,17.799 5.169,17.811C5.313,17.82 5.469,17.827 5.635,17.832C5.935,17.843 6.292,17.848 6.706,17.848C9.128,17.848 10.924,17.239 12.093,16.02C13.263,14.801 13.847,13.117 13.847,10.969C13.847,8.718 13.288,7.013 12.171,5.856C11.053,4.7 9.283,4.121 6.862,4.121C6.53,4.121 6.189,4.127 5.837,4.137C5.601,4.144 5.374,4.158 5.157,4.179C4.979,4.196 4.843,4.345 4.843,4.524L4.843,17.464ZM149.873,11.015C149.873,12.05 150,12.983 150.254,13.815C150.508,14.647 150.874,15.362 151.352,15.96C151.83,16.558 152.414,17.02 153.105,17.345C153.796,17.669 154.589,17.831 155.483,17.831C156.357,17.831 157.145,17.669 157.846,17.345C158.547,17.02 159.137,16.558 159.614,15.96C160.092,15.362 160.458,14.647 160.712,13.815C160.966,12.983 161.093,12.05 161.093,11.015C161.093,9.981 160.966,9.043 160.712,8.201C160.458,7.359 160.092,6.639 159.614,6.04C159.137,5.442 158.547,4.98 157.846,4.656C157.145,4.331 156.357,4.169 155.483,4.169C154.589,4.169 153.796,4.336 153.105,4.671C152.414,5.006 151.83,5.472 151.352,6.071C150.874,6.669 150.508,7.389 150.254,8.231C150,9.073 149.873,10.001 149.873,11.015ZM26.826,11.015C26.826,12.05 26.953,12.983 27.207,13.815C27.461,14.647 27.827,15.362 28.305,15.96C28.782,16.558 29.367,17.02 30.058,17.345C30.749,17.669 31.541,17.831 32.436,17.831C33.31,17.831 34.097,17.669 34.799,17.345C35.5,17.02 36.09,16.558 36.567,15.96C37.045,15.362 37.411,14.647 37.665,13.815C37.919,12.983 38.046,12.05 38.046,11.015C38.046,9.981 37.919,9.043 37.665,8.201C37.411,7.359 37.045,6.639 36.567,6.04C36.09,5.442 35.5,4.98 34.799,4.656C34.097,4.331 33.31,4.169 32.436,4.169C31.541,4.169 30.749,4.336 30.058,4.671C29.367,5.006 28.782,5.472 28.305,6.071C27.827,6.669 27.461,7.389 27.207,8.231C26.953,9.073 26.826,10.001 26.826,11.015ZM219.451,5.284C219.36,5.555 217.302,10.986 216.651,12.744C216.615,12.846 216.63,12.959 216.692,13.047C216.754,13.135 216.856,13.187 216.963,13.187L221.968,13.187C222.076,13.187 222.177,13.135 222.24,13.047C222.302,12.958 222.317,12.845 222.281,12.744C221.627,10.986 219.559,5.555 219.451,5.284ZM72.169,5.284C72.078,5.555 70.02,10.986 69.369,12.744C69.332,12.846 69.348,12.959 69.41,13.047C69.472,13.135 69.573,13.187 69.681,13.187L74.686,13.187C74.794,13.187 74.895,13.135 74.958,13.047C75.019,12.958 75.035,12.845 74.998,12.744C74.345,10.986 72.277,5.555 72.169,5.284ZM112.395,4.07C112.047,4.07 111.705,4.08 111.368,4.101C111.166,4.113 110.981,4.125 110.812,4.137C110.633,4.151 110.494,4.3 110.494,4.479L110.494,9.94C110.494,10.031 110.53,10.118 110.594,10.182C110.659,10.246 110.746,10.282 110.837,10.282L111.996,10.282C113.652,10.282 114.899,10.058 115.737,9.609C116.575,9.16 116.994,8.324 116.994,7.1C116.994,6.508 116.887,6.018 116.672,5.631C116.458,5.243 116.151,4.932 115.753,4.697C115.354,4.463 114.868,4.3 114.296,4.208C113.723,4.116 113.09,4.07 112.395,4.07ZM299.309,4.07C298.964,4.07 298.652,4.08 298.377,4.101C298.211,4.113 298.051,4.125 297.899,4.137C297.726,4.151 297.593,4.295 297.593,4.467L297.593,9.584C297.593,9.672 297.63,9.756 297.69,9.818C297.753,9.88 297.836,9.915 297.925,9.915L298.944,9.915C300.742,9.915 302.03,9.691 302.806,9.242C303.583,8.793 303.971,8.028 303.971,6.947C303.971,5.906 303.579,5.167 302.79,4.728C302.003,4.289 300.845,4.07 299.309,4.07ZM132.352,4.07C132.004,4.07 131.692,4.08 131.417,4.101C131.252,4.113 131.094,4.125 130.94,4.137C130.768,4.151 130.635,4.295 130.635,4.467L130.635,9.584C130.635,9.672 130.67,9.756 130.732,9.818C130.794,9.88 130.879,9.915 130.966,9.915L131.984,9.915C133.783,9.915 135.071,9.691 135.847,9.242C136.624,8.793 137.012,8.028 137.012,6.947C137.012,5.906 136.619,5.167 135.832,4.728C135.045,4.289 133.885,4.07 132.352,4.07ZM195.337,4.07C194.99,4.07 194.678,4.08 194.402,4.101C194.238,4.113 194.079,4.125 193.926,4.137C193.753,4.151 193.62,4.295 193.62,4.467L193.62,9.584C193.62,9.672 193.655,9.756 193.717,9.818C193.78,9.88 193.864,9.915 193.952,9.915L194.969,9.915C196.768,9.915 198.056,9.691 198.833,9.242C199.61,8.793 199.998,8.028 199.998,6.947C199.998,5.906 199.604,5.167 198.818,4.728C198.03,4.289 196.87,4.07 195.337,4.07Z" style="fill:black;"/>
</svg>